<?xml version="1.0" encoding="UTF-8"?><svg id="Layer_1" xmlns="http://www.w3.org/2000/svg" xmlns:xlink="http://www.w3.org/1999/xlink" viewBox="0 0 26.5 26.5"><defs><clipPath id="clippath"><rect width="26.5" height="26.5" fill="none"/></clipPath><linearGradient id="linear-gradient" x1="21.26" y1="22.48" x2="21.26" y2="7.02" gradientTransform="translate(0 28) scale(1 -1)" gradientUnits="userSpaceOnUse"><stop offset="0" stop-color="#0d0d0d"/><stop offset="1" stop-color="#37f"/></linearGradient><linearGradient id="linear-gradient-2" x1="21.26" y1="22.48" x2="21.26" y2="7.02" gradientTransform="translate(0 28) scale(1 -1)" gradientUnits="userSpaceOnUse"><stop offset="0" stop-color="#09c6f9"/><stop offset="1" stop-color="#37f"/></linearGradient><linearGradient id="linear-gradient-3" x1="8.28" y1="22.48" x2="8.28" y2="7.02" gradientTransform="translate(0 28) scale(1 -1)" gradientUnits="userSpaceOnUse"><stop offset="0" stop-color="#0d0d0d"/><stop offset="1" stop-color="#37f"/></linearGradient><linearGradient id="linear-gradient-4" x1="8.28" y1="22.48" x2="8.28" y2="7.02" gradientTransform="translate(0 28) scale(1 -1)" gradientUnits="userSpaceOnUse"><stop offset="0" stop-color="#09c6f9"/><stop offset="1" stop-color="#37f"/></linearGradient></defs><g clip-path="url(#clippath)"><g><path d="M18.77,5.52l4.42,4.42-4.42-4.42Zm4.42,0l-4.42,4.42,4.42-4.42Zm1.1,11.04l-3.86,4.42-2.21-2.21" fill="url(#linear-gradient)"/><path d="M24.29,16.56l-3.86,4.42-2.21-2.21m.55-13.25l4.42,4.42-4.42-4.42Zm4.42,0l-4.42,4.42,4.42-4.42Z" fill="none" stroke="url(#linear-gradient-2)" stroke-linecap="round" stroke-linejoin="round" stroke-width="4"/><path d="M2.21,5.52H14.35v4.42H2.21V5.52Zm0,11.04H14.35v4.42H2.21v-4.42Z" fill="url(#linear-gradient-3)" stroke="url(#linear-gradient-4)" stroke-linecap="round" stroke-linejoin="round" stroke-width="4"/></g></g></svg>