<?xml version="1.0" encoding="UTF-8"?><svg id="Layer_1" xmlns="http://www.w3.org/2000/svg" xmlns:xlink="http://www.w3.org/1999/xlink" viewBox="0 0 23.56 22.08"><defs><linearGradient id="linear-gradient" x1="11.78" y1="22.11" x2="11.78" y2="2.97" gradientTransform="translate(0 25.06) scale(1 -1)" gradientUnits="userSpaceOnUse"><stop offset="0" stop-color="#09c6f9"/><stop offset="1" stop-color="#37f"/></linearGradient><linearGradient id="linear-gradient-2" x1="5.89" y1="25.06" x2="5.89" y2="19.17" gradientTransform="translate(0 25.06) scale(1 -1)" gradientUnits="userSpaceOnUse"><stop offset="0" stop-color="#09c6f9"/><stop offset="1" stop-color="#37f"/></linearGradient><linearGradient id="linear-gradient-3" x1="17.67" y1="25.06" x2="17.67" y2="19.17" gradientTransform="translate(0 25.06) scale(1 -1)" gradientUnits="userSpaceOnUse"><stop offset="0" stop-color="#09c6f9"/><stop offset="1" stop-color="#37f"/></linearGradient></defs><path d="M22.27,2.94h-2.94v2.21c0,.21-.04,.42-.12,.62-.08,.2-.2,.38-.35,.53-.15,.15-.33,.27-.53,.35-.2,.08-.41,.12-.62,.12s-.42-.04-.62-.12c-.2-.08-.38-.2-.53-.35-.15-.15-.27-.33-.35-.53s-.12-.41-.12-.62V2.94H7.51v2.21c0,.43-.17,.84-.47,1.15-.3,.3-.72,.47-1.15,.47s-.84-.17-1.15-.47c-.3-.3-.47-.72-.47-1.15V2.94H1.33c-.18,0-.35,.03-.51,.1-.16,.07-.31,.16-.43,.29s-.22,.27-.29,.43C.03,3.93,0,4.1,0,4.28V20.75c0,.17,.03,.34,.09,.5,.06,.16,.16,.31,.28,.43,.12,.12,.26,.22,.42,.29,.16,.07,.33,.11,.5,.11H22.27c.17,0,.34-.04,.5-.11,.16-.07,.3-.17,.42-.29,.12-.12,.21-.27,.28-.43,.06-.16,.09-.33,.09-.5V4.28c0-.17-.03-.34-.09-.5-.06-.16-.16-.31-.28-.43-.12-.12-.26-.22-.42-.29-.16-.07-.33-.11-.5-.11ZM5.89,17.67h-1.47v-1.47h1.47v1.47Zm0-3.68h-1.47v-1.47h1.47v1.47Zm0-3.68h-1.47v-1.47h1.47v1.47Zm4.42,7.36h-1.47v-1.47h1.47v1.47Zm0-3.68h-1.47v-1.47h1.47v1.47Zm0-3.68h-1.47v-1.47h1.47v1.47Zm4.42,7.36h-1.47v-1.47h1.47v1.47Zm0-3.68h-1.47v-1.47h1.47v1.47Zm0-3.68h-1.47v-1.47h1.47v1.47Zm4.42,7.36h-1.47v-1.47h1.47v1.47Zm0-3.68h-1.47v-1.47h1.47v1.47Zm0-3.68h-1.47v-1.47h1.47v1.47Z" fill="url(#linear-gradient)"/><path d="M5.89,5.89c.2,0,.38-.08,.52-.22,.14-.14,.22-.33,.22-.52V.74c0-.2-.08-.38-.22-.52-.14-.14-.33-.22-.52-.22s-.38,.08-.52,.22c-.14,.14-.22,.33-.22,.52V5.15c0,.2,.08,.38,.22,.52,.14,.14,.33,.22,.52,.22Z" fill="url(#linear-gradient-2)"/><path d="M17.67,5.89c.2,0,.38-.08,.52-.22,.14-.14,.22-.33,.22-.52V.74c0-.2-.08-.38-.22-.52-.14-.14-.33-.22-.52-.22s-.38,.08-.52,.22c-.14,.14-.22,.33-.22,.52V5.15c0,.2,.08,.38,.22,.52,.14,.14,.33,.22,.52,.22Z" fill="url(#linear-gradient-3)"/></svg>