<?xml version="1.0" encoding="UTF-8"?><svg id="Layer_1" xmlns="http://www.w3.org/2000/svg" xmlns:xlink="http://www.w3.org/1999/xlink" viewBox="0 0 22.64 19.88"><defs><linearGradient id="linear-gradient" x1="11.32" y1="19.17" x2="11.32" y2="-.71" gradientTransform="translate(0 19.17) scale(1 -1)" gradientUnits="userSpaceOnUse"><stop offset="0" stop-color="#09c6f9"/><stop offset="1" stop-color="#37f"/></linearGradient></defs><path d="M4.42,2.48c0-.66,.26-1.29,.73-1.76,.47-.47,1.1-.73,1.76-.73h9.39c.66,0,1.29,.26,1.76,.73,.47,.47,.73,1.1,.73,1.76V11.04h3.86v3.59c0,.95-.38,1.86-1.05,2.54s-1.59,1.05-2.54,1.05h-5.8v-4.42h1.38c.22,0,.43-.09,.59-.24s.24-.37,.24-.59-.09-.43-.24-.59-.37-.24-.59-.24h-1.93c-.26-.34-.59-.62-.97-.81-.38-.19-.81-.29-1.23-.29H4.42V2.48Zm14.35,14.08h.28c.51,0,1-.2,1.37-.57,.36-.36,.57-.85,.57-1.37v-1.93h-2.21v3.86ZM8.56,4.42c-.22,0-.43,.09-.59,.24s-.24,.37-.24,.59,.09,.43,.24,.59c.16,.16,.37,.24,.59,.24h6.07c.22,0,.43-.09,.59-.24,.16-.16,.24-.37,.24-.59s-.09-.43-.24-.59c-.16-.16-.37-.24-.59-.24h-6.07Zm0,3.86c-.22,0-.43,.09-.59,.24-.16,.16-.24,.37-.24,.59s.09,.43,.24,.59c.16,.16,.37,.24,.59,.24h6.07c.22,0,.43-.09,.59-.24s.24-.37,.24-.59-.09-.43-.24-.59-.37-.24-.59-.24h-6.07ZM0,13.8c0-.44,.17-.86,.49-1.17,.31-.31,.73-.49,1.17-.49H10.49c.44,0,.86,.17,1.17,.49,.31,.31,.49,.73,.49,1.17v4.42c0,.44-.17,.86-.49,1.17-.31,.31-.73,.49-1.17,.49H1.66c-.44,0-.86-.17-1.17-.49-.31-.31-.49-.73-.49-1.17v-4.42Zm11.04,.55c-.29,0-.57-.12-.78-.32-.21-.21-.32-.49-.32-.78h-1.1c0,.59,.23,1.15,.65,1.56,.41,.41,.98,.65,1.56,.65v-1.1Zm0,2.21c-.59,0-1.15,.23-1.56,.65-.41,.41-.65,.98-.65,1.56h1.1c0-.29,.12-.57,.32-.78,.21-.21,.49-.32,.78-.32v-1.1ZM2.21,13.25c0,.29-.12,.57-.32,.78-.21,.21-.49,.32-.78,.32v1.1c.59,0,1.15-.23,1.56-.65,.41-.41,.65-.98,.65-1.56h-1.1Zm1.1,5.52c0-.59-.23-1.15-.65-1.56-.41-.41-.98-.65-1.56-.65v1.1c.29,0,.57,.12,.78,.32,.21,.21,.32,.49,.32,.78h1.1Zm4.69-2.76c0-.51-.2-1-.57-1.37-.36-.36-.85-.57-1.37-.57s-1,.2-1.37,.57c-.36,.36-.57,.85-.57,1.37s.2,1,.57,1.37c.36,.36,.85,.57,1.37,.57s1-.2,1.37-.57c.36-.36,.57-.85,.57-1.37Z" fill="url(#linear-gradient)"/></svg>