<?xml version="1.0" encoding="UTF-8"?><svg id="Layer_1" xmlns="http://www.w3.org/2000/svg" xmlns:xlink="http://www.w3.org/1999/xlink" viewBox="0 0 23.19 17.39"><defs><linearGradient id="linear-gradient" x1="16.77" y1="18.89" x2="16.77" y2="2.73" gradientTransform="translate(0 18.89) scale(1 -1)" gradientUnits="userSpaceOnUse"><stop offset="0" stop-color="#09c6f9"/><stop offset="1" stop-color="#37f"/></linearGradient><linearGradient id="linear-gradient-2" x1="17.8" y1="13.92" x2="17.8" y2="7.24" gradientTransform="translate(0 18.89) scale(1 -1)" gradientUnits="userSpaceOnUse"><stop offset="0" stop-color="#09c6f9"/><stop offset="1" stop-color="#37f"/></linearGradient><linearGradient id="linear-gradient-3" x1="17.8" y1="6.8" x2="17.8" y2="5.2" gradientTransform="translate(0 18.89) scale(1 -1)" gradientUnits="userSpaceOnUse"><stop offset="0" stop-color="#09c6f9"/><stop offset="1" stop-color="#37f"/></linearGradient><linearGradient id="linear-gradient-4" x1="11.59" y1="2.33" x2="11.59" y2="2.32" gradientTransform="translate(0 18.89) scale(1 -1)" gradientUnits="userSpaceOnUse"><stop offset="0" stop-color="#09c6f9"/><stop offset="1" stop-color="#37f"/></linearGradient><linearGradient id="linear-gradient-5" x1="17.8" y1="15.58" x2="17.8" y2="14.75" gradientTransform="translate(0 18.89) scale(1 -1)" gradientUnits="userSpaceOnUse"><stop offset="0" stop-color="#09c6f9"/><stop offset="1" stop-color="#37f"/></linearGradient><linearGradient id="linear-gradient-6" x1="17.8" y1="17.23" x2="17.8" y2="16.41" gradientTransform="translate(0 18.89) scale(1 -1)" gradientUnits="userSpaceOnUse"><stop offset="0" stop-color="#09c6f9"/><stop offset="1" stop-color="#37f"/></linearGradient><linearGradient id="linear-gradient-7" x1="17.63" y1="17.23" x2="17.63" y2="1.5" gradientTransform="translate(0 18.89) scale(1 -1)" gradientUnits="userSpaceOnUse"><stop offset="0" stop-color="#09c6f9"/><stop offset="1" stop-color="#37f"/></linearGradient><linearGradient id="linear-gradient-8" x1="6.42" y1="18.89" x2="6.42" y2="2.73" gradientTransform="translate(0 18.89) scale(1 -1)" gradientUnits="userSpaceOnUse"><stop offset="0" stop-color="#09c6f9"/><stop offset="1" stop-color="#37f"/></linearGradient><linearGradient id="linear-gradient-9" x1="5.55" y1="17.23" x2="5.55" y2="1.5" gradientTransform="translate(0 18.89) scale(1 -1)" gradientUnits="userSpaceOnUse"><stop offset="0" stop-color="#09c6f9"/><stop offset="1" stop-color="#37f"/></linearGradient></defs><path d="M12.01,16.16c.36-.28,.79-.43,1.24-.43h8.28V0H13.25c-.33,0-.64,.13-.88,.36-.23,.23-.36,.55-.36,.88v14.92ZM16.15,2.48c0-.44,.17-.86,.49-1.17,.31-.31,.73-.49,1.17-.49s.86,.17,1.17,.49c.31,.31,.49,.73,.49,1.17V12.42c0,.07-.02,.15-.06,.21l-1.24,2.07c-.04,.06-.09,.11-.15,.15-.06,.04-.13,.05-.2,.05s-.14-.02-.2-.05c-.06-.04-.11-.09-.15-.15l-1.24-2.07c-.04-.06-.06-.14-.06-.21V2.48Z" fill="url(#linear-gradient)"/><path d="M17.39,5.8h.83v5.57l.41,.28V4.97h-1.66v6.68l.41-.28V5.8Z" fill="url(#linear-gradient-2)"/><path d="M17.12,12.55l.68,1.14,.68-1.14-.68-.46-.68,.46Z" fill="url(#linear-gradient-3)"/><path d="M11.59,16.57h0Z" fill="url(#linear-gradient-4)"/><path d="M16.98,3.31h1.66v.83h-1.66v-.83Z" fill="url(#linear-gradient-5)"/><path d="M17.8,1.66c-.22,0-.43,.09-.58,.24-.16,.16-.24,.37-.24,.58h1.66c0-.22-.09-.43-.24-.58-.16-.16-.37-.24-.58-.24Z" fill="url(#linear-gradient-6)"/><path d="M23.19,1.66h-.83v14.49c0,.11-.04,.22-.12,.29-.08,.08-.18,.12-.29,.12H13.25c-.26,0-.51,.08-.71,.23-.21,.15-.37,.36-.45,.6h11.11V1.66Z" fill="url(#linear-gradient-7)"/><path d="M11.18,1.24c0-.33-.13-.64-.36-.88-.23-.23-.55-.36-.88-.36H1.66V15.73H9.94c.45,0,.89,.15,1.24,.43V1.24ZM2.48,2.9H7.04v.83H2.48v-.83Zm1.66,2.48h-1.66v-.83h1.66v.83Zm6.21,0H4.97v-.83h5.38v.83Zm0-1.66h-2.48v-.83h2.48v.83Zm0-1.66H2.48v-.83h7.87v.83Z" fill="url(#linear-gradient-8)"/><path d="M0,1.66v15.73H11.11c-.09-.24-.24-.45-.45-.6-.21-.15-.46-.23-.71-.23H1.24c-.11,0-.22-.04-.29-.12-.08-.08-.12-.18-.12-.29V1.66H0Z" fill="url(#linear-gradient-9)"/></svg>