<?xml version="1.0" encoding="UTF-8"?><svg id="Layer_1" xmlns="http://www.w3.org/2000/svg" xmlns:xlink="http://www.w3.org/1999/xlink" viewBox="0 0 26.5 26.5"><defs><clipPath id="clippath"><rect width="26.5" height="26.5" fill="none"/></clipPath><linearGradient id="linear-gradient" x1="4.71" y1="6.99" x2="4.71" y2="5.43" gradientTransform="translate(0 28) scale(1 -1)" gradientUnits="userSpaceOnUse"><stop offset="0" stop-color="#09c6f9"/><stop offset="1" stop-color="#045de9"/></linearGradient><linearGradient id="linear-gradient-2" x1="6.24" y1="13.97" x2="6.24" y2="1.5" gradientTransform="translate(0 28) scale(1 -1)" gradientUnits="userSpaceOnUse"><stop offset="0" stop-color="#09c6f9"/><stop offset="1" stop-color="#045de9"/></linearGradient><linearGradient id="linear-gradient-3" x1="6.73" y1="23.39" x2="6.73" y2="20.08" gradientTransform="translate(0 28) scale(1 -1)" gradientUnits="userSpaceOnUse"><stop offset="0" stop-color="#09c6f9"/><stop offset="1" stop-color="#045de9"/></linearGradient><linearGradient id="linear-gradient-4" x1="6.24" y1="28" x2="6.24" y2="15.53" gradientTransform="translate(0 28) scale(1 -1)" gradientUnits="userSpaceOnUse"><stop offset="0" stop-color="#09c6f9"/><stop offset="1" stop-color="#045de9"/></linearGradient><linearGradient id="linear-gradient-5" x1="20.26" y1="13.97" x2="20.26" y2="7.31" gradientTransform="translate(0 28) scale(1 -1)" gradientUnits="userSpaceOnUse"><stop offset="0" stop-color="#09c6f9"/><stop offset="1" stop-color="#045de9"/></linearGradient><linearGradient id="linear-gradient-6" x1="20.26" y1="9.77" x2="20.26" y2="1.5" gradientTransform="translate(0 28) scale(1 -1)" gradientUnits="userSpaceOnUse"><stop offset="0" stop-color="#09c6f9"/><stop offset="1" stop-color="#045de9"/></linearGradient><linearGradient id="linear-gradient-7" x1="18.74" y1="22.51" x2="18.74" y2="20.96" gradientTransform="translate(0 28) scale(1 -1)" gradientUnits="userSpaceOnUse"><stop offset="0" stop-color="#09c6f9"/><stop offset="1" stop-color="#045de9"/></linearGradient><linearGradient id="linear-gradient-8" x1="21.84" y1="23.59" x2="21.84" y2="19.89" gradientTransform="translate(0 28) scale(1 -1)" gradientUnits="userSpaceOnUse"><stop offset="0" stop-color="#09c6f9"/><stop offset="1" stop-color="#045de9"/></linearGradient><linearGradient id="linear-gradient-9" x1="20.26" y1="28" x2="20.26" y2="15.53" gradientTransform="translate(0 28) scale(1 -1)" gradientUnits="userSpaceOnUse"><stop offset="0" stop-color="#09c6f9"/><stop offset="1" stop-color="#045de9"/></linearGradient></defs><g clip-path="url(#clippath)"><g><path d="M4.71,22.57c.43,0,.78-.35,.78-.78s-.35-.78-.78-.78-.78,.35-.78,.78,.35,.78,.78,.78Z" fill="url(#linear-gradient)"/><path d="M.78,26.5H12.47V14.03H0v11.7c0,.43,.35,.78,.78,.78Zm3.93-7.04c.27,0,.53,.06,.78,.14v-2.47c0-.27,.14-.52,.37-.66,.23-.14,.51-.15,.76-.03l3.11,1.55c.38,.19,.54,.66,.35,1.04-.19,.38-.66,.54-1.04,.35l-1.98-.99v3.4c0,1.28-1.04,2.33-2.33,2.33s-2.33-1.04-2.33-2.33,1.04-2.33,2.33-2.33Z" fill="url(#linear-gradient-2)"/><path d="M5.49,7.92l2.48-1.66-2.48-1.66v3.31Z" fill="url(#linear-gradient-3)"/><path d="M12.47,0H.78C.35,0,0,.35,0,.78V12.47H12.47V0Zm-2.67,6.91l-4.66,3.11c-.24,.16-.55,.17-.8,.04-.25-.13-.41-.4-.41-.68V3.16c0-.29,.16-.55,.41-.68,.25-.13,.56-.12,.8,.04l4.66,3.11c.22,.14,.35,.39,.35,.65s-.13,.5-.35,.65Z" fill="url(#linear-gradient-4)"/><path d="M14.03,20.69l2.61-2.56c.3-.3,.79-.3,1.1,0l1,1,2.56-2.56c.3-.3,.79-.3,1.1,0l4.11,4.11v-6.67H14.03v6.67Z" fill="url(#linear-gradient-5)"/><path d="M19.83,20.24l1,1c.3,.3,.3,.79,0,1.1-.3,.3-.79,.3-1.1,0l-2.56-2.56-3.16,3.11v3.61h11.7c.43,0,.78-.35,.78-.78v-2.84l-4.66-4.66-2.01,2.01Z" fill="url(#linear-gradient-6)"/><path d="M17.96,5.49h1.55v1.55h-1.55v-1.55Z" fill="url(#linear-gradient-7)"/><path d="M21.07,7.34l1.55,.78v-3.7l-1.55,.78v2.15Z" fill="url(#linear-gradient-8)"/><path d="M25.72,0H14.03V12.47h12.47V.78c0-.43-.35-.78-.78-.78Zm-1.55,9.37c0,.27-.14,.52-.37,.66-.22,.14-.51,.16-.76,.03l-2.94-1.47h-2.92c-.43,0-.78-.35-.78-.78v-3.11c0-.43,.35-.78,.78-.78h2.92l2.94-1.47c.24-.12,.53-.11,.76,.03,.23,.14,.37,.39,.37,.66v6.21Z" fill="url(#linear-gradient-9)"/></g></g></svg>